<svg width="364" height="172" viewBox="0 0 364 172" fill="none" xmlns="http://www.w3.org/2000/svg">
<g clip-path="url(#clip0)">
<path d="M189.493 121.621V91.1316C189.483 90.9205 189.483 90.7089 189.493 90.4977C189.493 86.3572 187.512 85.2477 184.362 85.3468C178.558 85.5449 172.753 85.5053 166.948 85.3468C163.838 85.3468 162.531 86.5553 162.531 89.9628C162.531 114.37 162.531 138.804 162.531 163.264C162.531 166.652 163.739 167.979 166.869 167.9C172.456 167.781 178.043 167.9 183.61 167.9C189.177 167.9 189.216 167.721 189.236 161.857C189.236 149.416 189.236 136.955 189.236 124.513C189.394 123.503 189.434 122.572 189.493 121.621Z" fill="#9DD7DA"/>
<path d="M0 116.33C0 108.703 0 101.036 0 93.4285C0 87.4852 1.66413 85.8607 7.46879 85.7022C11.6886 85.6031 15.9083 85.5635 20.1083 85.7022C25.1601 85.8805 27.0026 87.6833 27.0422 92.7549C27.1412 104.008 27.0422 115.26 27.0422 126.434C27.0616 129.435 27.32 132.429 27.8148 135.389C28.1922 138.717 29.7749 141.791 32.2641 144.032C34.7533 146.273 37.9768 147.525 41.326 147.553C44.1268 147.763 46.9434 147.563 49.6863 146.958C52.5308 146.214 55.0432 144.536 56.8211 142.194C58.5991 139.852 59.5399 136.981 59.4928 134.041C59.6909 127.821 59.4928 121.58 59.4928 115.359C59.4928 108.326 59.4928 101.294 59.4928 94.2606C59.4928 87.2276 61.0975 85.2861 67.9125 85.2861C86.4954 85.2861 87.9416 84.8701 99.6103 84.8701C114.984 84.8701 111.715 84.8701 120.907 85.7418C128.021 86.5134 134.608 89.8562 139.431 95.1423C144.254 100.428 146.98 107.294 147.098 114.448C147.732 130.297 147.395 146.146 147.335 161.995C147.335 166.393 144.978 168.651 140.619 168.869C136.261 169.087 132.18 169.008 127.96 168.869C122.274 168.711 120.036 166.433 119.937 160.707C119.937 149.474 119.937 138.221 119.937 127.028C119.937 125.225 119.937 123.403 119.937 121.6C119.461 111.972 113.28 106.286 103.434 106.365C93.5877 106.444 87.585 112.309 87.3274 122.016C87.3274 127.959 87.2086 132.437 87.2086 136.062C87.2086 150.881 79.5218 161.361 67.0606 166.967C57.789 171.128 52.44 171.128 41.8015 171.128C34.9469 171.067 28.1507 169.861 21.6932 167.562C7.92445 162.926 0.297167 151.891 0 137.429C0 130.396 0 123.363 0 116.33Z" fill="#9DD7DA"/>
<path d="M303.506 125.207C303.506 124.83 303.506 124.474 303.506 124.117C303.46 116.964 301.578 109.943 298.04 103.727C294.501 97.5105 289.426 92.3071 283.299 88.6155C274.317 83.5077 264.11 80.9524 253.78 81.2259C243.464 80.9536 233.27 83.5091 224.301 88.6155C218.169 92.3037 213.086 97.5053 209.541 103.722C205.996 109.938 204.106 116.961 204.054 124.117C204.054 124.474 204.054 124.83 204.054 125.207C204.054 126.257 204.054 127.188 204.054 128.337C204.054 128.693 204.054 129.05 204.054 129.426C204.335 135.635 205.967 141.708 208.838 147.221C211.709 152.734 215.749 157.553 220.676 161.342C221.995 162.443 223.385 163.455 224.836 164.373C233.503 169.637 243.506 172.286 253.642 172C263.825 172.331 273.886 169.702 282.606 164.433C284.054 163.51 285.444 162.497 286.766 161.402C291.69 157.611 295.727 152.791 298.594 147.279C301.462 141.766 303.091 135.694 303.368 129.486C303.368 129.109 303.368 128.753 303.368 128.376C303.447 127.287 303.546 126.257 303.506 125.207ZM259.922 147.851C259.466 147.97 259.05 148.108 258.594 148.188C257.284 148.399 255.96 148.518 254.632 148.544H253.84H253.067C251.74 148.52 250.415 148.401 249.105 148.188C248.649 148.188 248.213 147.97 247.778 147.851C247.342 147.732 246.331 147.474 245.638 147.237C241.547 145.567 238.06 142.692 235.639 138.995C233.219 135.298 231.98 130.952 232.087 126.534C231.966 122.101 233.2 117.736 235.625 114.022C238.05 110.309 241.55 107.424 245.658 105.752C246.479 105.435 247.319 105.17 248.174 104.96L248.867 104.781C250.174 104.523 251.499 104.364 252.829 104.306H254.652C255.983 104.366 257.307 104.525 258.614 104.781L259.526 104.999C264.288 106.181 268.494 108.976 271.427 112.91C274.36 116.843 275.839 121.672 275.612 126.574C275.719 130.991 274.48 135.337 272.06 139.035C269.64 142.732 266.153 145.606 262.061 147.276C261.289 147.474 260.556 147.672 259.843 147.851H259.922Z" fill="#9DD7DA"/>
<path d="M175.566 41.603C177.5 41.4826 179.438 41.7688 181.254 42.4432C183.071 43.1176 184.726 44.1652 186.113 45.5185C187.5 46.8717 188.588 48.5006 189.306 50.3001C190.025 52.0996 190.359 54.0297 190.286 55.966C190.341 59.8174 188.864 63.5329 186.18 66.2953C183.495 69.0576 179.824 70.6404 175.972 70.6956C172.121 70.7508 168.405 69.2737 165.643 66.5894C162.881 63.9051 161.298 60.2334 161.243 56.3821C161.147 54.4546 161.449 52.5281 162.129 50.7222C162.809 48.9162 163.853 47.2692 165.196 45.8834C166.54 44.4976 168.153 43.4026 169.937 42.6663C171.721 41.93 173.637 41.568 175.566 41.603Z" fill="#9DD7DA"/>
</g>
<g clip-path="url(#clip1)">
<path d="M334.927 36.8687V5.94349C334.927 5.70576 334.927 5.50765 334.927 5.28972C334.927 1.08977 332.946 -0.0394691 329.717 0.0595866C323.773 0.277509 317.83 0.237887 312.025 0.0595866C308.855 0.0595866 307.528 1.28788 307.528 4.75482C307.528 29.5584 307.528 54.3619 307.528 79.1654C307.528 82.6126 308.756 83.9795 311.946 83.9003C317.612 83.7616 323.278 83.9003 328.944 83.9003C334.61 83.9003 334.63 83.722 334.669 77.7588C334.669 65.1193 334.669 52.46 334.768 39.8205C334.808 38.7705 334.808 37.8196 334.927 36.8687Z" fill="#FF6B6B"/>
<path d="M316.206 28.29H285.28C285.043 28.29 284.845 28.29 284.627 28.29C280.427 28.29 279.297 30.2712 279.397 33.5004C279.614 39.4437 279.575 45.387 279.397 51.1917C279.397 54.3615 280.625 55.6888 284.092 55.669C308.895 55.669 333.699 55.669 358.502 55.669C361.949 55.669 363.316 54.4407 363.237 51.2511C363.099 45.5852 363.237 39.9192 363.237 34.2532C363.237 28.5872 363.059 28.5476 357.096 28.5278C344.456 28.5278 331.797 28.5278 319.157 28.4287C318.14 28.4023 317.157 28.3561 316.206 28.29Z" fill="#FF6B6B"/>
</g>
<defs>
<clipPath id="clip0">
<rect width="303.546" height="130.397" fill="white" transform="translate(0 41.6035)"/>
</clipPath>
<clipPath id="clip1">
<rect width="83.8803" height="83.8803" fill="white" transform="translate(279.337)"/>
</clipPath>
</defs>
</svg>
